<?xml version="1.0" encoding="UTF-8"?>
<!-- Generated by Pixelmator Pro 2.4.5 -->
<svg width="83" height="37" viewBox="0 0 83 37" xmlns="http://www.w3.org/2000/svg" xmlns:xlink="http://www.w3.org/1999/xlink">
    <path id="Path" fill="#0b132a" stroke="none" d="M 47.629997 25.115999 C 47.430984 25.124285 47.234596 25.068174 47.07 24.955999 C 46.937569 24.838223 46.840607 24.685848 46.790001 24.516001 L 42.75 11.716 L 42.709999 11.535999 C 42.709999 11.43 42.75 11.336 42.830002 11.256001 C 42.912781 11.167181 43.028587 11.116516 43.150002 11.116001 L 45.769997 11.116001 C 45.970001 11.116001 46.129997 11.175999 46.25 11.296 C 46.383003 11.403 46.470001 11.522999 46.510002 11.656 L 49.230003 20.695999 L 51.970001 11.656 C 52.010597 11.508358 52.094131 11.376101 52.209999 11.276001 C 52.343002 11.168999 52.510002 11.116001 52.709999 11.116001 L 55.330002 11.116001 C 55.449997 11.116001 55.550003 11.163 55.629997 11.256001 C 55.709999 11.336 55.75 11.43 55.75 11.535999 C 55.750534 11.596582 55.74382 11.657013 55.730003 11.716 L 51.669998 24.516001 C 51.629166 24.690134 51.530449 24.845259 51.389999 24.955999 C 51.255997 25.063 51.075996 25.115999 50.849998 25.115999 Z M 58.074997 25.115999 C 57.941734 25.115889 57.813324 25.065952 57.714996 24.976 C 57.625046 24.877674 57.575111 24.749266 57.574997 24.615999 L 57.574997 11.636 C 57.574997 11.49 57.622002 11.369999 57.714996 11.276001 C 57.804497 11.170788 57.936935 11.111927 58.074997 11.116001 L 63.735001 11.116001 C 65.468002 11.116001 66.828003 11.508999 67.815002 12.296 C 68.802002 13.083 69.294998 14.236 69.294998 15.756001 C 69.294998 17.275999 68.802002 18.416 67.815002 19.176001 C 66.828003 19.923 65.468002 20.296 63.735001 20.296 L 61.455002 20.296 L 61.455002 24.615999 C 61.454887 24.749266 61.404953 24.877674 61.315002 24.976 C 61.219498 25.070398 61.089188 25.121073 60.955002 25.115999 Z M 63.635002 17.436001 C 64.182007 17.436001 64.608002 17.296 64.914993 17.016001 C 65.235001 16.723 65.395004 16.296 65.395004 15.736 C 65.395004 15.216 65.248001 14.796 64.955002 14.476 C 64.675003 14.156 64.235001 13.996 63.635002 13.996 L 61.394997 13.996 L 61.394997 17.436001 Z M 71.649002 25.115999 C 71.515732 25.115889 71.387329 25.065952 71.289001 24.976 C 71.199051 24.877674 71.149109 24.749266 71.149002 24.615999 L 71.149002 11.636 C 71.149002 11.49 71.195999 11.369999 71.289001 11.276001 C 71.378494 11.170788 71.510941 11.111927 71.649002 11.116001 L 73.908997 11.116001 C 74.216003 11.116001 74.442001 11.243 74.589005 11.496 L 79.309006 18.955999 L 79.309006 11.636 C 79.309006 11.49 79.356003 11.369999 79.449005 11.276001 C 79.538498 11.170788 79.670929 11.111927 79.809006 11.116001 L 82.348999 11.116001 C 82.496002 11.116001 82.615997 11.168999 82.709 11.276001 C 82.802002 11.369999 82.848999 11.489 82.848999 11.636 L 82.848999 24.596001 C 82.851364 24.735697 82.801437 24.871233 82.709 24.976 C 82.613495 25.070398 82.483185 25.121073 82.348999 25.115999 L 80.089005 25.115999 C 79.781998 25.115999 79.556 24.989 79.408997 24.736 L 74.709 17.576 L 74.709 24.615999 C 74.713074 24.754065 74.654205 24.886507 74.548996 24.976 C 74.453491 25.070398 74.323181 25.121073 74.188995 25.115999 Z"/>
    <path id="path1" fill="#f53838" stroke="none" d="M 31.146999 13.647999 L 31.125999 13.625999 C 31.123903 13.624828 31.122173 13.623096 31.121 13.621 L 17.502001 0 L 3.88 13.619999 L 3.876 13.625999 L 3.853 13.646999 C -0.432563 17.95648 -1.235263 24.629604 1.906076 29.832457 C 5.047416 35.035305 11.326583 37.432594 17.136 35.646999 C 17.374001 35.575001 17.628 35.575001 17.865999 35.646999 C 22.150791 36.964462 26.811209 36.02486 30.250788 33.150066 C 33.690365 30.275274 35.442131 25.855585 34.905998 21.405001 C 34.552883 18.472553 33.229794 15.742254 31.146999 13.647999 Z M 8.723 22.629999 C 8.589114 22.763952 8.513933 22.94561 8.514 23.135 C 8.538323 25.538828 9.217693 27.890518 10.479 29.937 C 10.538148 30.032043 10.529256 30.154385 10.456986 30.239878 C 10.384718 30.325369 10.265563 30.354502 10.162 30.312 C 7.724386 29.286161 5.956807 27.114902 5.446748 24.519878 C 4.936688 21.924854 5.750988 19.246122 7.619 17.374001 L 17.5 7.493 L 27.382 17.374001 C 30.4795 20.478083 30.476366 25.504782 27.375 28.605 C 26.64851 29.333252 25.787142 29.913044 24.839001 30.312 C 24.735607 30.352314 24.618023 30.322559 24.546249 30.237921 C 24.474476 30.153282 24.464334 30.032415 24.521 29.937 C 25.782612 27.8906 26.462324 25.538916 26.487 23.135 C 26.486912 22.945444 26.411346 22.763725 26.277 22.629999 L 21.603001 17.672001 C 21.5065 17.595476 21.369547 17.597155 21.274952 17.676023 C 21.180359 17.754892 21.154078 17.889311 21.212 17.997999 C 23.027 21.283001 21.466 26.002001 18.862 28.605 L 18.849001 28.618999 C 18.101421 29.359756 16.896578 29.359756 16.149 28.618999 L 16.136999 28.605 C 13.533 26.002001 11.973 21.283001 13.788 17.997999 C 13.850657 17.889416 13.826188 17.751505 13.730001 17.671103 C 13.633814 17.5907 13.493752 17.59108 13.398 17.672001 L 8.722 22.629999 Z"/>
</svg>
